<svg width="24" height="24" viewBox="0 0 24 24" fill="none" xmlns="http://www.w3.org/2000/svg">
<path d="M12.75 6C12.75 5.80109 12.671 5.61032 12.5303 5.46967C12.3897 5.32902 12.1989 5.25 12 5.25C11.8011 5.25 11.6103 5.32902 11.4697 5.46967C11.329 5.61032 11.25 5.80109 11.25 6V7.5C11.25 7.69891 11.329 7.88968 11.4697 8.03033C11.6103 8.17098 11.8011 8.25 12 8.25C12.1989 8.25 12.3897 8.17098 12.5303 8.03033C12.671 7.88968 12.75 7.69891 12.75 7.5V6Z" fill="#5F60B9"/>
<path fill-rule="evenodd" clip-rule="evenodd" d="M13.7839 1.7839C13.254 1.4359 12.6339 1.25049 11.9999 1.25049C11.366 1.25049 10.7459 1.4359 10.2159 1.7839L2.15294 7.0779C0.492943 8.1679 1.26494 10.7499 3.25094 10.7499H20.7489C22.7349 10.7499 23.5069 8.1679 21.8469 7.0779L13.7839 1.7839ZM11.0389 3.0379C11.3243 2.85057 11.6581 2.75075 11.9994 2.75075C12.3408 2.75075 12.6746 2.85057 12.9599 3.0379L21.0229 8.3319C21.1129 8.39094 21.1814 8.47741 21.2183 8.57848C21.2552 8.67954 21.2585 8.78981 21.2277 8.8929C21.1969 8.996 21.1337 9.08642 21.0475 9.15073C20.9612 9.21504 20.8565 9.24982 20.7489 9.2499H3.24994C3.14236 9.24982 3.03766 9.21504 2.95142 9.15073C2.86517 9.08642 2.80196 8.996 2.77119 8.8929C2.74042 8.78981 2.74373 8.67954 2.78061 8.57848C2.8175 8.47741 2.886 8.39094 2.97594 8.3319L11.0389 3.0379Z" fill="#5F60B9"/>
<path d="M18.75 12.25C18.9489 12.25 19.1397 12.329 19.2803 12.4697C19.421 12.6103 19.5 12.8011 19.5 13V16C19.5 16.1989 19.421 16.3897 19.2803 16.5303C19.1397 16.671 18.9489 16.75 18.75 16.75C18.5511 16.75 18.3603 16.671 18.2197 16.5303C18.079 16.3897 18 16.1989 18 16V13C18 12.8011 18.079 12.6103 18.2197 12.4697C18.3603 12.329 18.5511 12.25 18.75 12.25ZM15 13C15 12.8011 14.921 12.6103 14.7803 12.4697C14.6397 12.329 14.4489 12.25 14.25 12.25C14.0511 12.25 13.8603 12.329 13.7197 12.4697C13.579 12.6103 13.5 12.8011 13.5 13V16C13.5 16.1989 13.579 16.3897 13.7197 16.5303C13.8603 16.671 14.0511 16.75 14.25 16.75C14.4489 16.75 14.6397 16.671 14.7803 16.5303C14.921 16.3897 15 16.1989 15 16V13ZM9.75 12.25C9.94891 12.25 10.1397 12.329 10.2803 12.4697C10.421 12.6103 10.5 12.8011 10.5 13V16C10.5 16.1989 10.421 16.3897 10.2803 16.5303C10.1397 16.671 9.94891 16.75 9.75 16.75C9.55109 16.75 9.36032 16.671 9.21967 16.5303C9.07902 16.3897 9 16.1989 9 16V13C9 12.8011 9.07902 12.6103 9.21967 12.4697C9.36032 12.329 9.55109 12.25 9.75 12.25ZM6 13C6 12.8011 5.92098 12.6103 5.78033 12.4697C5.63968 12.329 5.44891 12.25 5.25 12.25C5.05109 12.25 4.86032 12.329 4.71967 12.4697C4.57902 12.6103 4.5 12.8011 4.5 13V16C4.5 16.1989 4.57902 16.3897 4.71967 16.5303C4.86032 16.671 5.05109 16.75 5.25 16.75C5.44891 16.75 5.63968 16.671 5.78033 16.5303C5.92098 16.3897 6 16.1989 6 16V13ZM2.75 19C2.75 18.8011 2.82902 18.6103 2.96967 18.4697C3.11032 18.329 3.30109 18.25 3.5 18.25H20.5C20.6989 18.25 20.8897 18.329 21.0303 18.4697C21.171 18.6103 21.25 18.8011 21.25 19C21.25 19.1989 21.171 19.3897 21.0303 19.5303C20.8897 19.671 20.6989 19.75 20.5 19.75H3.5C3.30109 19.75 3.11032 19.671 2.96967 19.5303C2.82902 19.3897 2.75 19.1989 2.75 19ZM2 21.25C1.80109 21.25 1.61032 21.329 1.46967 21.4697C1.32902 21.6103 1.25 21.8011 1.25 22C1.25 22.1989 1.32902 22.3897 1.46967 22.5303C1.61032 22.671 1.80109 22.75 2 22.75H22C22.1989 22.75 22.3897 22.671 22.5303 22.5303C22.671 22.3897 22.75 22.1989 22.75 22C22.75 21.8011 22.671 21.6103 22.5303 21.4697C22.3897 21.329 22.1989 21.25 22 21.25H2Z" fill="#5F60B9"/>
</svg>
